<svg width="23.561737" height="23.561768" viewBox="0 0 23.5617 23.5618" fill="none" xmlns="http://www.w3.org/2000/svg" xmlns:xlink="http://www.w3.org/1999/xlink">
	<desc>
			Created with Pixso.
	</desc>
	<defs/>
	<path id="Combined Shape" d="M11.78 19.41C12.37 19.41 12.86 19.86 12.92 20.44L12.93 20.56L12.93 22.4C12.93 23.04 12.41 23.56 11.78 23.56C11.18 23.56 10.69 23.11 10.63 22.53L10.62 22.4L10.62 20.56C10.62 19.93 11.14 19.41 11.78 19.41ZM6.38 17.18C6.79 17.59 6.82 18.25 6.47 18.7L6.38 18.8L5.07 20.11C4.62 20.56 3.9 20.56 3.45 20.11C3.03 19.69 3 19.03 3.36 18.58L3.45 18.48L4.75 17.18C5.2 16.73 5.93 16.73 6.38 17.18ZM18.8 17.18L20.11 18.48C20.56 18.93 20.56 19.66 20.11 20.11C19.66 20.56 18.93 20.56 18.48 20.11L17.17 18.8C16.73 18.35 16.73 17.63 17.17 17.18C17.62 16.73 18.35 16.73 18.8 17.18ZM11.78 5.87C15.03 5.87 17.68 8.52 17.68 11.78C17.68 15.03 15.03 17.68 11.78 17.68C8.52 17.68 5.87 15.03 5.87 11.78C5.87 8.52 8.52 5.87 11.78 5.87ZM22.41 10.62C23.04 10.62 23.56 11.14 23.56 11.78C23.56 12.41 23.04 12.93 22.41 12.93L20.56 12.93C19.93 12.93 19.41 12.41 19.41 11.78C19.41 11.14 19.93 10.62 20.56 10.62L22.41 10.62ZM2.99 10.62C3.62 10.62 4.14 11.14 4.14 11.78C4.14 12.37 3.69 12.86 3.11 12.92L2.99 12.93L1.15 12.93C0.51 12.93 0 12.41 0 11.78C0 11.18 0.44 10.69 1.02 10.63L1.15 10.62L2.99 10.62ZM4.97 3.36L5.07 3.45L6.38 4.75C6.83 5.2 6.83 5.93 6.38 6.38C5.96 6.79 5.3 6.82 4.85 6.47L4.75 6.38L3.45 5.07C3 4.62 3 3.89 3.45 3.45C3.86 3.03 4.52 3 4.97 3.36ZM20.11 3.45C20.56 3.89 20.56 4.62 20.11 5.07L18.8 6.38C18.35 6.83 17.63 6.83 17.17 6.38C16.73 5.93 16.73 5.2 17.17 4.75L18.48 3.45C18.93 3 19.66 3 20.11 3.45ZM11.78 0C12.41 0 12.93 0.51 12.93 1.15L12.93 2.99C12.93 3.62 12.41 4.14 11.78 4.14C11.14 4.14 10.62 3.62 10.62 2.99L10.62 1.15C10.62 0.51 11.14 0 11.78 0Z" fill="#FFFFFF" fill-opacity="1.000000" fill-rule="nonzero"/>
</svg>
