<svg width="22.335388" height="24.000000" viewBox="0 0 22.3354 24" fill="none" xmlns="http://www.w3.org/2000/svg" xmlns:xlink="http://www.w3.org/1999/xlink">
	<desc>
			Created with Pixso.
	</desc>
	<defs/>
	<path id="Path" d="M22.15 17.36C21.94 17.1 21.58 17 21.26 17.11C20.37 17.43 19.41 17.6 18.4 17.6C13.54 17.6 9.6 13.65 9.6 8.79C9.6 5.87 11.04 3.16 13.45 1.52C13.72 1.34 13.86 1 13.78 0.68C13.71 0.36 13.44 0.12 13.12 0.07C12.74 0.01 12.37 0 12 0C5.38 0 0 5.38 0 12C0 18.61 5.38 24 12 24C16.2 24 20.02 21.86 22.21 18.29C22.39 18 22.36 17.63 22.15 17.36Z" fill="#FFFFFF" fill-opacity="1.000000" fill-rule="nonzero"/>
</svg>
