<svg width="16.666687" height="16.666504" viewBox="0 0 16.6667 16.6665" fill="none" xmlns="http://www.w3.org/2000/svg" xmlns:xlink="http://www.w3.org/1999/xlink">
	<desc>
			Created with Pixso.
	</desc>
	<defs/>
	<g opacity="0.500000" style="mix-blend-mode:normal">
		<path id="Combined Shape" d="M10.0217 6.31104L12.3333 4.0979C10.8734 2.71387 8.80255 2.18115 6.8559 2.68872C4.90924 3.19653 3.3623 4.67261 2.76416 6.59351L0.377502 5.84766C1.23834 3.08203 3.4754 0.963379 6.28351 0.253662C9.09161 -0.455811 12.0667 0.345947 14.1379 2.37061L16.3109 0.291748C16.3702 0.232178 16.4595 0.214111 16.5374 0.246094C16.6151 0.278076 16.6661 0.353516 16.6667 0.4375L16.6667 6.66675L10.1688 6.66675C10.0845 6.66675 10.0085 6.61597 9.97626 6.53809C9.94403 6.46021 9.96198 6.37036 10.0217 6.31104ZM6.71362 10.1287C6.68134 10.0508 6.60547 10 6.52124 10L0 10L0 16.1489C0 16.2332 0.0508423 16.3091 0.128723 16.3413C0.206665 16.3735 0.296326 16.3557 0.355835 16.2959L2.50415 14.2742C4.57214 16.3105 7.55151 17.1223 10.3666 16.4167C13.1818 15.7112 15.426 13.5901 16.2892 10.8193L13.9025 10.0735C13.3035 11.9961 11.7541 13.4731 9.80499 13.9792C7.8559 14.4856 5.78351 13.9495 4.32458 12.5613L6.66876 10.3555C6.72821 10.2959 6.74591 10.2063 6.71362 10.1287Z" clip-rule="evenodd" fill="#FFFFFF" fill-opacity="1.000000" fill-rule="evenodd"/>
	</g>
</svg>
